<svg width="150" height="100" viewBox="0 0 150 100" fill="none" xmlns="http://www.w3.org/2000/svg">
<g clip-path="url(#clip0_90_3)">
<g clip-path="url(#clip1_90_3)">
<g clip-path="url(#clip2_90_3)">
<path fill-rule="evenodd" clip-rule="evenodd" d="M93.4086 71.8765V79.8694C93.4086 80.6651 92.7673 81.2233 91.9716 81.2233H91.1996C90.4039 81.2233 89.7626 80.6651 89.7626 79.8694V72.8385C89.7626 72.3635 89.3588 72.2684 89.0619 72.2684H88.8956C88.6224 72.2684 88.2186 72.3635 88.2186 72.8385V79.8694C88.2186 80.6651 87.5654 81.2233 86.7816 81.2233H85.9977C85.9819 81.2233 85.966 81.2233 85.9502 81.2233C85.1782 81.1996 84.5607 80.6532 84.5607 79.8694V72.8385C84.5607 72.3635 84.145 72.2684 83.8599 72.2684H83.6937C83.3968 72.2684 83.0048 72.3635 83.0048 72.8385V79.8694C83.0048 80.6651 82.3635 81.2233 81.5678 81.2233H80.7839C79.9882 81.2233 79.3469 80.6651 79.3469 79.8694V71.8765C79.3469 70.2257 80.0714 68.8955 82.5773 68.8955H90.392C92.6723 68.8955 93.4086 70.2257 93.4086 71.8765ZM103.135 76.6627H98.088C98.088 76.6627 98.088 77.3278 98.088 77.4228C98.088 77.6485 98.1949 78.0048 98.5868 78.0048C98.8006 78.0048 104.751 78.0167 104.751 78.0167C105.546 78.0167 106.105 78.5749 106.105 79.2756V79.9644C106.105 80.6532 105.546 81.2233 104.751 81.2233H97.411C96.0452 81.2233 94.43 80.582 94.43 78.3848V71.7221C94.43 69.5725 96.0096 68.8955 97.4229 68.8955H103.135C104.501 68.8955 106.116 69.525 106.116 71.7221V73.8243C106.116 76.0214 104.501 76.6627 103.135 76.6627ZM102.66 72.8504V72.7079C102.66 72.4585 102.554 72.1022 102.031 72.1022H98.7174C98.1949 72.1022 98.088 72.4585 98.088 72.7079V73.4561H102.043C102.554 73.4561 102.66 73.0998 102.66 72.8504ZM110.796 65.8433V79.8694C110.796 80.6651 110.143 81.2233 109.359 81.2233H108.575C107.779 81.2233 107.138 80.6651 107.138 79.8694V65.8433C107.138 65.0475 107.779 64.5012 108.575 64.5012H109.359C110.143 64.5012 110.796 65.0475 110.796 65.8433ZM63.2424 70.2376V78.2304C63.2424 79.5962 62.5179 81.2233 60.0238 81.2233H55.012C52.506 81.2233 51.7816 79.5962 51.7816 78.2304V70.2376C51.7816 69.4418 52.4229 68.8955 53.2186 68.8955H54.0025C54.7982 68.8955 55.4395 69.4418 55.4395 70.2376V77.2209C55.4395 77.7316 55.8433 77.8504 56.1284 77.8504H58.8956C59.1806 77.8504 59.5963 77.7316 59.5963 77.2209V70.2376C59.5963 69.4418 60.2376 68.8955 61.0333 68.8955H61.8172C62.601 68.8955 63.2424 69.4418 63.2424 70.2376ZM78.3255 71.8765V79.8694C78.3255 80.6651 77.6842 81.2233 76.9003 81.2233H76.1165C75.3208 81.2233 74.6794 80.6651 74.6794 79.8694V72.8385C74.6794 72.3635 74.2756 72.2684 73.9787 72.2684H73.8124C73.5393 72.2684 73.1355 72.3635 73.1355 72.8385V79.8694C73.1355 80.6651 72.4823 81.2233 71.6984 81.2233H70.9146C70.8987 81.2233 70.8829 81.2233 70.8671 81.2233C70.0951 81.1996 69.4775 80.6532 69.4775 79.8694V72.8385C69.4775 72.3635 69.0618 72.2684 68.7768 72.2684H68.6105C68.3136 72.2684 67.9217 72.3635 67.9217 72.8385V79.8694C67.9217 80.6651 67.2804 81.2233 66.4847 81.2233H65.7008C64.9051 81.2233 64.2638 80.6651 64.2638 79.8694V71.8765C64.2638 70.2257 64.9882 68.8955 67.4942 68.8955H75.3089C77.5892 68.8955 78.3255 70.2257 78.3255 71.8765ZM50.7602 71.8765V79.8694C50.7602 80.6651 50.1189 81.2233 49.3231 81.2233H48.5393C47.7436 81.2233 47.1022 80.6651 47.1022 79.8694V72.9573C47.1022 72.4228 46.6984 72.316 46.4134 72.316H42.7317V79.8694C42.7317 80.6651 42.0904 81.2233 41.2946 81.2233H40.5108C39.7151 81.2233 39.0737 80.6651 39.0737 79.8694V65.8433C39.0737 65.0475 39.7151 64.5012 40.5108 64.5012H41.2946C42.0904 64.5012 42.7317 65.0475 42.7317 65.8433V68.8955H47.5298C50.0357 68.8955 50.7602 70.5107 50.7602 71.8765Z" fill="white"/>
<path fill-rule="evenodd" clip-rule="evenodd" d="M74.9288 27.7316C72.4941 27.7316 70.5107 25.7483 70.5107 23.3017C70.5107 20.8552 72.4941 18.8837 74.9288 18.8837C77.3754 18.8837 79.3587 20.8552 79.3587 23.3017C79.3587 25.7483 77.3754 27.7316 74.9288 27.7316Z" fill="white"/>
<path d="M67.1498 45.2732C66.8529 45.7245 66.1997 46.734 65.7603 47.4703L74.9289 56.6509L84.1094 47.4703C83.6819 46.734 83.0168 45.7245 82.7317 45.2732L74.9289 53.0642L67.1498 45.2732Z" fill="white"/>
<path d="M68.6106 43.1473L74.9408 49.4774L81.2591 43.1591L74.9289 34.228L68.6106 43.1473Z" fill="white"/>
<path d="M74.9289 60.2494L64.525 49.8337C64.1212 50.9739 63.9075 52.1972 63.9075 53.4679C63.9075 59.5606 68.8006 64.5012 74.8932 64.5012C80.9859 64.5012 85.9621 59.5606 85.9621 53.4679C85.9621 52.1972 85.7483 50.9739 85.3445 49.8337L74.9289 60.2494Z" fill="white"/>
<path d="M99.7863 22.0309C90.4989 16.0451 83.5037 26.5796 76.5916 31.6983C76.5916 31.6983 79.1094 36.057 81.8053 39.0261C84.5013 42.0071 86.7578 43.2066 90.5108 43.1473C94.2756 43.076 97.6248 40.7245 99.0975 38.6698C100.558 36.6033 101.212 34.5487 101.212 31.6983H81.9954C84.917 29.3943 88.0999 25.9264 91.4372 24.3587C94.1806 23.0998 97.5298 24.2755 99.5963 26.8884C100.594 28.266 101.212 30.0119 101.212 31.6983C102.696 31.6983 104.133 31.6865 104.964 31.6865C105.143 27.696 102.957 24.3349 99.7863 22.0309Z" fill="white"/>
<path d="M68.0641 39.0261C70.7601 36.057 73.2779 31.6983 73.2779 31.6983C66.3658 26.5796 59.3705 16.0451 50.0831 22.0309C46.9121 24.3349 44.715 27.696 44.905 31.6865C45.7363 31.6865 47.1734 31.6983 48.658 31.6983C48.658 30.0119 49.2755 28.266 50.2732 26.8884C52.3397 24.2755 55.6888 23.0998 58.4323 24.3587C61.7696 25.9264 64.9525 29.3943 67.8741 31.6983H48.658C48.658 34.5487 49.3112 36.6033 50.772 38.6698C52.2328 40.7245 55.5938 43.076 59.3587 43.1473C63.1116 43.2066 65.3682 42.0071 68.0641 39.0261Z" fill="white"/>
</g>
</g>
</g>
<defs>
<clipPath id="clip0_90_3">
<rect width="141.44" height="100" fill="white" transform="translate(4.28003)"/>
</clipPath>
<clipPath id="clip1_90_3">
<rect width="141.44" height="100" fill="white" transform="translate(4.28003)"/>
</clipPath>
<clipPath id="clip2_90_3">
<rect width="141.44" height="100" fill="white" transform="translate(4.28003)"/>
</clipPath>
</defs>
</svg>
