<svg width="150" height="120" viewBox="0 0 150 120" fill="none" xmlns="http://www.w3.org/2000/svg">
<g clip-path="url(#clip0_90_4)">
<g clip-path="url(#clip1_90_4)">
<g clip-path="url(#clip2_90_4)">
<g clip-path="url(#clip3_90_4)">
<path fill-rule="evenodd" clip-rule="evenodd" d="M71.4101 67.0387C71.1277 67.442 70.9664 68.0471 70.9664 68.5916V73.2504C70.9664 73.3109 70.926 73.3714 70.8454 73.3916C68.9294 73.8756 67.5983 74.158 65.7227 74.158C60.8017 74.158 57.6555 71.0319 57.6555 66.474C57.6555 61.795 61.0639 58.7496 65.9244 58.7496C67.679 58.7496 69.4134 59.1328 70.684 59.5765C70.7445 59.5967 70.7849 59.6572 70.7849 59.7177V62.5009C70.7849 62.6622 70.5832 62.7227 70.5025 62.6017C69.6756 61.553 68.163 60.8471 65.9445 60.8471C63.1412 60.8471 60.842 63.0454 60.842 66.474C60.842 70.1042 63.1613 71.9193 65.8437 71.9193C66.6302 71.9193 67.3765 71.8387 67.9815 71.6975C68.0622 71.6773 68.1025 71.6168 68.1025 71.5361V68.5916C68.1025 68.0874 67.9008 67.4622 67.558 67.0185C67.4773 66.9177 67.558 66.7765 67.6991 66.7765H71.2891C71.4101 66.7765 71.4908 66.9378 71.4101 67.0387ZM88.9765 59.3748C88.6739 59.758 88.4723 60.3832 88.4723 60.9479V73.7143C88.4723 73.795 88.4118 73.8756 88.3311 73.8756H86.0924C86.0319 73.8756 85.9916 73.8555 85.9512 73.8151L78.247 64.4773C78.1462 64.3563 77.9647 64.4168 77.9647 64.5782V72.0404C77.9647 72.5849 78.1865 73.1899 78.5294 73.6135C78.6101 73.7143 78.5496 73.8756 78.4084 73.8756H74.7781C74.6571 73.8756 74.5765 73.7143 74.6571 73.6135C75.0202 73.1698 75.3025 72.5647 75.3025 72.0404V61.8555C75.3025 60.9681 74.6773 60.0202 74.0521 59.3748C73.9513 59.274 74.0118 59.1126 74.1529 59.1126H77.6823C77.7428 59.1126 77.7832 59.1328 77.8033 59.1731L85.5277 68.4908C85.6286 68.6118 85.8101 68.5513 85.8101 68.3899V60.9479C85.8101 60.3227 85.5681 59.6975 85.3059 59.3748C85.2252 59.274 85.3059 59.1126 85.4269 59.1126H88.8555C88.9765 59.1126 89.0571 59.2538 88.9765 59.3748ZM105.635 59.3748C105.313 59.7782 105.131 60.3832 105.131 60.9479V68.7933C105.131 72.3227 102.832 74.1983 99.2218 74.1983C95.6118 74.1983 92.7479 72.3227 92.7479 68.7933V60.9479C92.7479 60.3832 92.5664 59.7782 92.2437 59.3748C92.163 59.274 92.2437 59.1126 92.3849 59.1126H96.358C96.4992 59.1126 96.5798 59.274 96.4991 59.3748C96.1765 59.7782 95.9949 60.3832 95.9949 60.9479V68.7933C95.9949 70.9714 97.2655 72.0404 99.2218 72.0404C101.38 72.0404 102.489 70.9714 102.489 68.7933V60.9479C102.469 60.4235 102.287 59.758 102.005 59.3748C101.924 59.274 101.985 59.1126 102.126 59.1126H105.514C105.635 59.1126 105.716 59.274 105.635 59.3748ZM56.8084 73.8756H52.5126C52.3916 73.8756 52.3109 73.7345 52.3916 73.6135C52.6941 73.2101 52.8151 72.6252 52.6739 72.121C52.6739 72.121 52.6739 72.1143 52.6739 72.1009L51.8672 70.1849H45.8975L45.1714 71.9597C44.9697 72.484 45.0302 73.1698 45.3126 73.6336C45.3731 73.7345 45.2924 73.8756 45.1714 73.8756H41.521C41.4 73.8756 41.3193 73.7143 41.4 73.6135C41.8033 73.1698 42.1664 72.6051 42.3882 72.121L46.9865 61.2303C46.9865 61.2303 46.9933 61.2235 47.0067 61.2101C47.1681 60.6252 47.1479 59.879 46.7647 59.3748C46.684 59.274 46.7445 59.1126 46.8857 59.1126H50.2134C50.3143 59.1126 50.395 59.1731 50.4353 59.2538L55.9412 72.121C56.1832 72.6051 56.5462 73.1698 56.9294 73.6135C57.0101 73.7143 56.9496 73.8756 56.8084 73.8756ZM46.7849 68.0269H50.9597L48.9832 63.3277C48.9227 63.2067 48.7412 63.2067 48.7008 63.3277L46.7849 68.0269ZM113.42 62.3798C113.38 62.3193 113.299 62.279 113.218 62.279C113.138 62.2992 113.077 62.3597 113.077 62.4404L112.109 71.274C112.008 72.242 112.291 73.1093 112.855 73.6538C112.916 73.6941 112.916 73.7546 112.896 73.795C112.876 73.8353 112.835 73.8756 112.755 73.8756H107.652C107.592 73.8756 107.551 73.8353 107.531 73.795C107.511 73.7546 107.511 73.6941 107.571 73.6336C108.277 73.0286 108.802 72.0605 108.923 71.1731L110.476 56.9748C110.496 56.8336 110.617 56.7328 110.758 56.7328L113.904 56.7126C114.126 56.7126 114.368 56.8941 114.469 57.116L118.402 66.0706C118.422 66.1311 118.503 66.1311 118.523 66.0706L122.455 57.1361C122.556 56.9143 122.758 56.7328 123 56.7328C123.424 56.6924 124.392 56.6723 124.573 56.6521C126.449 56.5109 126.852 56.3496 128.022 55.8656C128.183 55.8051 128.627 55.5832 128.627 55.5832C128.708 55.5429 128.829 55.5025 128.808 55.7042C128.768 56.4101 128.304 57.0756 127.881 57.6605C127.84 57.721 127.618 58.0034 127.558 58.1042C127.155 58.6084 126.771 59.0521 126.852 60.5849C126.852 60.7462 126.913 61.3513 126.953 61.6135C126.953 61.6135 127.961 70.9513 127.982 71.1731C128.103 72.0605 128.647 73.0286 129.353 73.6336C129.393 73.6941 129.413 73.7546 129.393 73.795C129.373 73.8353 129.333 73.8756 129.252 73.8756H124.15C124.089 73.8756 124.049 73.8353 124.029 73.795C124.008 73.7546 124.008 73.6941 124.069 73.6538C124.634 73.1093 124.896 72.242 124.815 71.274L123.847 62.4404C123.847 62.3597 123.787 62.2992 123.706 62.279C123.625 62.279 123.545 62.3193 123.504 62.3798L118.684 72.7462C118.583 72.9277 118.321 72.9277 118.24 72.7462L113.42 62.3798ZM29.1378 72.7462C29.0571 72.9277 28.7949 72.9277 28.7143 72.7462L23.8739 62.3798C23.8336 62.3193 23.7529 62.279 23.6723 62.279C23.5916 62.2992 23.5311 62.3597 23.5311 62.4404L22.563 71.274C22.4823 72.2219 22.7445 73.1093 23.3294 73.6538C23.3697 73.6941 23.3697 73.7546 23.3496 73.795C23.3294 73.8353 23.2891 73.8756 23.2286 73.8756H18.126C18.0454 73.8756 18.005 73.8353 17.9849 73.795C17.9849 73.7546 17.9849 73.6941 18.0252 73.6336C18.7311 73.0286 19.2756 72.0605 19.3966 71.1731C19.4168 70.9513 20.4252 61.5933 20.4252 61.5933C20.4655 61.3513 20.526 60.7261 20.526 60.5849C20.6067 59.0521 20.2235 58.6084 19.8202 58.084C19.7597 58.0034 19.5378 57.7009 19.4975 57.6403C19.0739 57.0756 18.6101 56.4101 18.5697 55.684C18.5496 55.5025 18.6706 55.5227 18.7513 55.563C18.7513 55.563 19.1949 55.7849 19.3563 55.8656C20.5462 56.3496 20.9294 56.5109 22.805 56.6521C22.9865 56.6521 23.9546 56.6925 24.3781 56.7126C24.6202 56.7328 24.8218 56.9143 24.9227 57.1361L28.8555 66.0706C28.8756 66.1311 28.9563 66.1311 28.9966 66.0706L32.9294 57.116C33.0302 56.8941 33.2521 56.7126 33.4739 56.7126H36.6202C36.7613 56.7126 36.8823 56.8336 36.9025 56.9748L38.4555 71.1731C38.5765 72.0403 39.1008 73.0286 39.8067 73.6336C39.8672 73.6941 39.8672 73.7546 39.847 73.795C39.8269 73.8353 39.7865 73.8756 39.726 73.8756H34.6235C34.5428 73.8756 34.5025 73.8353 34.4823 73.795C34.4823 73.7546 34.4823 73.6941 34.5227 73.6538C35.0874 73.1093 35.3697 72.2219 35.2689 71.274L34.321 62.4404C34.3008 62.3597 34.2403 62.2992 34.1597 62.279C34.079 62.279 33.9983 62.2992 33.9781 62.3798L29.1378 72.7462ZM76.3513 54.9378C75.1008 55.7042 73.8907 56.0672 73.5882 56.0471C68.7681 55.6437 64.4924 52.8605 64.4924 49.5731C64.4924 47.9597 65.7227 45.9429 69.1916 45.9429C71.1076 45.9429 72.7613 46.7093 73.5075 47.274C73.6286 47.3748 73.7092 47.3748 73.8302 47.2941C74.3143 46.9714 75.8067 45.9429 77.884 45.9429C80.3647 45.9429 82.8857 47.2135 82.8857 49.9361C82.8857 51.6101 81.7361 53.3647 79.7798 54.5546C79.2756 54.8572 78.7109 55.1193 78.0857 55.3412C77.7227 55.4824 77.5613 55.321 77.9445 55.0588C78.8521 54.3731 81.2118 52.5782 81.2118 50.3193C81.2118 48.8067 79.8 47.274 77.3597 47.274C75.484 47.274 74.1126 48.3227 73.8504 48.484C73.7092 48.5849 73.6286 48.5647 73.5075 48.4639C72.842 47.8588 71.4706 47.2135 69.8773 47.2135C67.921 47.2135 66.1664 48.3025 66.1664 50.1983C66.1664 53.6471 72.1966 55.079 73.6487 55.079C74.0118 55.079 77.2386 53.9496 77.2386 51.2471C77.2386 50.2992 76.6538 49.674 75.8672 49.674C74.8386 49.674 74.2336 50.521 73.8504 51.0051C73.7496 51.1059 73.6084 51.1664 73.5277 51.0051C73.1647 50.3597 72.479 49.6538 71.5311 49.6538C70.684 49.6538 70.1798 50.2588 70.1798 50.9244C70.1798 52.4975 72.3781 53.4857 73.4067 53.8286C73.6084 53.9093 73.6084 54.1109 73.326 54.0908C71.8739 53.9496 68.2437 52.8403 68.2437 50.5009C68.2437 49.5328 69.0706 48.4437 70.7445 48.4437C71.8739 48.4437 72.9428 49.0689 73.5681 49.8151C73.6286 49.8958 73.7294 49.8756 73.7697 49.8353C73.8302 49.7748 75.1412 48.5042 76.6941 48.5042C77.8235 48.5042 79.0336 49.2504 79.0336 50.8639C79.0336 52.5177 77.5815 54.1714 76.3513 54.9378ZM130.906 55.5429C131.531 55.5429 132.035 56.0471 132.035 56.6925C132.035 57.3378 131.531 57.8219 130.906 57.8219C130.26 57.8219 129.756 57.3378 129.756 56.6925C129.756 56.0471 130.26 55.5429 130.906 55.5429ZM130.886 55.7244C130.382 55.7244 129.978 56.1479 129.978 56.6925C129.978 57.237 130.382 57.6605 130.906 57.6605C131.41 57.6605 131.813 57.237 131.813 56.6925C131.813 56.1479 131.41 55.7244 130.906 55.7244H130.886ZM130.664 57.358H130.462V56.0672C130.563 56.0672 130.664 56.0471 130.825 56.0471C131.007 56.0471 131.148 56.0874 131.208 56.1479C131.289 56.2017 131.329 56.2891 131.329 56.4101C131.329 56.5714 131.229 56.6723 131.087 56.7126V56.7328C131.188 56.753 131.269 56.8538 131.289 57.0353C131.329 57.237 131.37 57.2975 131.37 57.358H131.168C131.128 57.2975 131.108 57.1967 131.087 57.0151C131.047 56.8538 130.966 56.7933 130.805 56.7933H130.664V57.358ZM130.664 56.6723H130.805C130.987 56.6723 131.128 56.5916 131.128 56.4504C131.128 56.3294 131.047 56.2286 130.805 56.2286C130.751 56.2286 130.704 56.2286 130.664 56.2286V56.6723Z" fill="white"/>
</g>
</g>
</g>
</g>
<defs>
<clipPath id="clip0_90_4">
<rect width="150" height="120" fill="white"/>
</clipPath>
<clipPath id="clip1_90_4">
<rect width="150" height="120" fill="white"/>
</clipPath>
<clipPath id="clip2_90_4">
<rect width="150" height="120" fill="white"/>
</clipPath>
<clipPath id="clip3_90_4">
<rect width="150" height="120" fill="white"/>
</clipPath>
</defs>
</svg>
