<svg width="144" height="144" viewBox="0 0 144 144" fill="none" xmlns="http://www.w3.org/2000/svg">
<path d="M138.858 33.4897C139.257 34.1805 139.645 34.8779 140.023 35.5819C139.337 35.1332 138.878 34.3656 138.858 33.4897Z" fill="#292929"/>
<path d="M124.778 15.7369C125.976 16.8614 127.139 18.0237 128.263 19.222C127.828 20.0256 126.978 20.5714 126 20.5714C124.58 20.5714 123.429 19.4202 123.429 18C123.429 17.0221 123.974 16.1717 124.778 15.7369Z" fill="#292929"/>
<path d="M108.418 3.9774C109.122 4.35511 109.82 4.74343 110.51 5.14214C109.634 5.1217 108.867 4.66328 108.418 3.9774Z" fill="#292929"/>
<path d="M33.4897 5.14214C34.1805 4.74343 34.8779 4.35511 35.5819 3.9774C35.1332 4.66328 34.3656 5.1217 33.4897 5.14214Z" fill="#292929"/>
<path d="M15.7369 19.222C16.8614 18.0237 18.0237 16.8614 19.222 15.7369C20.0256 16.1717 20.5714 17.0221 20.5714 18C20.5714 19.4202 19.4202 20.5714 18 20.5714C17.0221 20.5714 16.1717 20.0256 15.7369 19.222Z" fill="#292929"/>
<path d="M3.9774 35.5819C4.35511 34.8779 4.74343 34.1805 5.14214 33.4897C5.1217 34.3656 4.66328 35.1332 3.9774 35.5819Z" fill="#292929"/>
<path d="M140.023 108.418C139.645 109.122 139.257 109.82 138.858 110.51C138.878 109.634 139.337 108.867 140.023 108.418Z" fill="#292929"/>
<path d="M128.263 124.778C127.828 123.974 126.978 123.429 126 123.429C124.58 123.429 123.429 124.58 123.429 126C123.429 126.978 123.974 127.828 124.778 128.263C125.976 127.139 127.139 125.976 128.263 124.778Z" fill="#292929"/>
<path d="M110.51 138.858C109.634 138.878 108.867 139.337 108.418 140.023C109.122 139.645 109.82 139.257 110.51 138.858Z" fill="#292929"/>
<path d="M35.5819 140.023C35.1332 139.337 34.3656 138.878 33.4897 138.858C34.1805 139.257 34.8779 139.645 35.5819 140.023Z" fill="#292929"/>
<path d="M19.222 128.263C20.0256 127.828 20.5714 126.978 20.5714 126C20.5714 124.58 19.4202 123.429 18 123.429C17.0221 123.429 16.1717 123.974 15.7369 124.778C16.8614 125.976 18.0237 127.139 19.222 128.263Z" fill="#292929"/>
<path d="M5.14214 110.51C5.1217 109.634 4.66328 108.867 3.9774 108.418C4.35511 109.122 4.74343 109.82 5.14214 110.51Z" fill="#292929"/>
<path d="M51.4286 2.57143C51.4286 3.99159 50.2773 5.14286 48.8571 5.14286C47.437 5.14286 46.2857 3.99159 46.2857 2.57143C46.2857 1.15127 47.437 0 48.8571 0C50.2773 0 51.4286 1.15127 51.4286 2.57143Z" fill="#292929"/>
<path d="M66.8571 2.57143C66.8571 3.99159 65.7059 5.14286 64.2857 5.14286C62.8656 5.14286 61.7143 3.99159 61.7143 2.57143C61.7143 1.15127 62.8656 0 64.2857 0C65.7059 0 66.8571 1.15127 66.8571 2.57143Z" fill="#292929"/>
<path d="M82.2857 2.57143C82.2857 3.99159 81.1344 5.14286 79.7143 5.14286C78.2941 5.14286 77.1429 3.99159 77.1429 2.57143C77.1429 1.15127 78.2941 0 79.7143 0C81.1344 0 82.2857 1.15127 82.2857 2.57143Z" fill="#292929"/>
<path d="M97.7143 2.57143C97.7143 3.99159 96.563 5.14286 95.1429 5.14286C93.7227 5.14286 92.5714 3.99159 92.5714 2.57143C92.5714 1.15127 93.7227 0 95.1429 0C96.563 0 97.7143 1.15127 97.7143 2.57143Z" fill="#292929"/>
<path d="M36 18C36 19.4202 34.8487 20.5714 33.4286 20.5714C32.0084 20.5714 30.8571 19.4202 30.8571 18C30.8571 16.5798 32.0084 15.4286 33.4286 15.4286C34.8487 15.4286 36 16.5798 36 18Z" fill="#292929"/>
<path d="M51.4286 18C51.4286 19.4202 50.2773 20.5714 48.8571 20.5714C47.437 20.5714 46.2857 19.4202 46.2857 18C46.2857 16.5798 47.437 15.4286 48.8571 15.4286C50.2773 15.4286 51.4286 16.5798 51.4286 18Z" fill="#292929"/>
<path d="M66.8571 18C66.8571 19.4202 65.7059 20.5714 64.2857 20.5714C62.8656 20.5714 61.7143 19.4202 61.7143 18C61.7143 16.5798 62.8656 15.4286 64.2857 15.4286C65.7059 15.4286 66.8571 16.5798 66.8571 18Z" fill="#292929"/>
<path d="M82.2857 18C82.2857 19.4202 81.1344 20.5714 79.7143 20.5714C78.2941 20.5714 77.1429 19.4202 77.1429 18C77.1429 16.5798 78.2941 15.4286 79.7143 15.4286C81.1344 15.4286 82.2857 16.5798 82.2857 18Z" fill="#292929"/>
<path d="M97.7143 18C97.7143 19.4202 96.563 20.5714 95.1429 20.5714C93.7227 20.5714 92.5714 19.4202 92.5714 18C92.5714 16.5798 93.7227 15.4286 95.1429 15.4286C96.563 15.4286 97.7143 16.5798 97.7143 18Z" fill="#292929"/>
<path d="M113.143 18C113.143 19.4202 111.992 20.5714 110.571 20.5714C109.151 20.5714 108 19.4202 108 18C108 16.5798 109.151 15.4286 110.571 15.4286C111.992 15.4286 113.143 16.5798 113.143 18Z" fill="#292929"/>
<path d="M20.5714 33.4286C20.5714 34.8487 19.4202 36 18 36C16.5798 36 15.4286 34.8487 15.4286 33.4286C15.4286 32.0084 16.5798 30.8571 18 30.8571C19.4202 30.8571 20.5714 32.0084 20.5714 33.4286Z" fill="#292929"/>
<path d="M36 33.4286C36 34.8487 34.8487 36 33.4286 36C32.0084 36 30.8571 34.8487 30.8571 33.4286C30.8571 32.0084 32.0084 30.8571 33.4286 30.8571C34.8487 30.8571 36 32.0084 36 33.4286Z" fill="#292929"/>
<path d="M51.4286 33.4286C51.4286 34.8487 50.2773 36 48.8571 36C47.437 36 46.2857 34.8487 46.2857 33.4286C46.2857 32.0084 47.437 30.8571 48.8571 30.8571C50.2773 30.8571 51.4286 32.0084 51.4286 33.4286Z" fill="#292929"/>
<path d="M66.8571 33.4286C66.8571 34.8487 65.7059 36 64.2857 36C62.8656 36 61.7143 34.8487 61.7143 33.4286C61.7143 32.0084 62.8656 30.8571 64.2857 30.8571C65.7059 30.8571 66.8571 32.0084 66.8571 33.4286Z" fill="#292929"/>
<path d="M82.2857 33.4286C82.2857 34.8487 81.1344 36 79.7143 36C78.2941 36 77.1429 34.8487 77.1429 33.4286C77.1429 32.0084 78.2941 30.8571 79.7143 30.8571C81.1344 30.8571 82.2857 32.0084 82.2857 33.4286Z" fill="#292929"/>
<path d="M97.7143 33.4286C97.7143 34.8487 96.563 36 95.1429 36C93.7227 36 92.5714 34.8487 92.5714 33.4286C92.5714 32.0084 93.7227 30.8571 95.1429 30.8571C96.563 30.8571 97.7143 32.0084 97.7143 33.4286Z" fill="#292929"/>
<path d="M113.143 33.4286C113.143 34.8487 111.992 36 110.571 36C109.151 36 108 34.8487 108 33.4286C108 32.0084 109.151 30.8571 110.571 30.8571C111.992 30.8571 113.143 32.0084 113.143 33.4286Z" fill="#292929"/>
<path d="M128.571 33.4286C128.571 34.8487 127.42 36 126 36C124.58 36 123.429 34.8487 123.429 33.4286C123.429 32.0084 124.58 30.8571 126 30.8571C127.42 30.8571 128.571 32.0084 128.571 33.4286Z" fill="#292929"/>
<path d="M5.14286 48.8571C5.14286 50.2773 3.99159 51.4286 2.57143 51.4286C1.15127 51.4286 0 50.2773 0 48.8571C0 47.437 1.15127 46.2857 2.57143 46.2857C3.99159 46.2857 5.14286 47.437 5.14286 48.8571Z" fill="#292929"/>
<path d="M20.5714 48.8571C20.5714 50.2773 19.4202 51.4286 18 51.4286C16.5798 51.4286 15.4286 50.2773 15.4286 48.8571C15.4286 47.437 16.5798 46.2857 18 46.2857C19.4202 46.2857 20.5714 47.437 20.5714 48.8571Z" fill="#292929"/>
<path d="M36 48.8571C36 50.2773 34.8487 51.4286 33.4286 51.4286C32.0084 51.4286 30.8571 50.2773 30.8571 48.8571C30.8571 47.437 32.0084 46.2857 33.4286 46.2857C34.8487 46.2857 36 47.437 36 48.8571Z" fill="#292929"/>
<path d="M51.4286 48.8571C51.4286 50.2773 50.2773 51.4286 48.8571 51.4286C47.437 51.4286 46.2857 50.2773 46.2857 48.8571C46.2857 47.437 47.437 46.2857 48.8571 46.2857C50.2773 46.2857 51.4286 47.437 51.4286 48.8571Z" fill="#292929"/>
<path d="M66.8571 48.8571C66.8571 50.2773 65.7059 51.4286 64.2857 51.4286C62.8656 51.4286 61.7143 50.2773 61.7143 48.8571C61.7143 47.437 62.8656 46.2857 64.2857 46.2857C65.7059 46.2857 66.8571 47.437 66.8571 48.8571Z" fill="#292929"/>
<path d="M82.2857 48.8571C82.2857 50.2773 81.1344 51.4286 79.7143 51.4286C78.2941 51.4286 77.1429 50.2773 77.1429 48.8571C77.1429 47.437 78.2941 46.2857 79.7143 46.2857C81.1344 46.2857 82.2857 47.437 82.2857 48.8571Z" fill="#292929"/>
<path d="M97.7143 48.8571C97.7143 50.2773 96.563 51.4286 95.1429 51.4286C93.7227 51.4286 92.5714 50.2773 92.5714 48.8571C92.5714 47.437 93.7227 46.2857 95.1429 46.2857C96.563 46.2857 97.7143 47.437 97.7143 48.8571Z" fill="#292929"/>
<path d="M113.143 48.8571C113.143 50.2773 111.992 51.4286 110.571 51.4286C109.151 51.4286 108 50.2773 108 48.8571C108 47.437 109.151 46.2857 110.571 46.2857C111.992 46.2857 113.143 47.437 113.143 48.8571Z" fill="#292929"/>
<path d="M128.571 48.8571C128.571 50.2773 127.42 51.4286 126 51.4286C124.58 51.4286 123.429 50.2773 123.429 48.8571C123.429 47.437 124.58 46.2857 126 46.2857C127.42 46.2857 128.571 47.437 128.571 48.8571Z" fill="#292929"/>
<path d="M144 48.8571C144 50.2773 142.849 51.4286 141.429 51.4286C140.008 51.4286 138.857 50.2773 138.857 48.8571C138.857 47.437 140.008 46.2857 141.429 46.2857C142.849 46.2857 144 47.437 144 48.8571Z" fill="#292929"/>
<path d="M5.14286 64.2857C5.14286 65.7059 3.99159 66.8571 2.57143 66.8571C1.15127 66.8571 0 65.7059 0 64.2857C0 62.8656 1.15127 61.7143 2.57143 61.7143C3.99159 61.7143 5.14286 62.8656 5.14286 64.2857Z" fill="#292929"/>
<path d="M20.5714 64.2857C20.5714 65.7059 19.4202 66.8571 18 66.8571C16.5798 66.8571 15.4286 65.7059 15.4286 64.2857C15.4286 62.8656 16.5798 61.7143 18 61.7143C19.4202 61.7143 20.5714 62.8656 20.5714 64.2857Z" fill="#292929"/>
<path d="M36 64.2857C36 65.7059 34.8487 66.8571 33.4286 66.8571C32.0084 66.8571 30.8571 65.7059 30.8571 64.2857C30.8571 62.8656 32.0084 61.7143 33.4286 61.7143C34.8487 61.7143 36 62.8656 36 64.2857Z" fill="#292929"/>
<path d="M51.4286 64.2857C51.4286 65.7059 50.2773 66.8571 48.8571 66.8571C47.437 66.8571 46.2857 65.7059 46.2857 64.2857C46.2857 62.8656 47.437 61.7143 48.8571 61.7143C50.2773 61.7143 51.4286 62.8656 51.4286 64.2857Z" fill="#292929"/>
<path d="M66.8571 64.2857C66.8571 65.7059 65.7059 66.8571 64.2857 66.8571C62.8656 66.8571 61.7143 65.7059 61.7143 64.2857C61.7143 62.8656 62.8656 61.7143 64.2857 61.7143C65.7059 61.7143 66.8571 62.8656 66.8571 64.2857Z" fill="#292929"/>
<path d="M82.2857 64.2857C82.2857 65.7059 81.1344 66.8571 79.7143 66.8571C78.2941 66.8571 77.1429 65.7059 77.1429 64.2857C77.1429 62.8656 78.2941 61.7143 79.7143 61.7143C81.1344 61.7143 82.2857 62.8656 82.2857 64.2857Z" fill="#292929"/>
<path d="M97.7143 64.2857C97.7143 65.7059 96.563 66.8571 95.1429 66.8571C93.7227 66.8571 92.5714 65.7059 92.5714 64.2857C92.5714 62.8656 93.7227 61.7143 95.1429 61.7143C96.563 61.7143 97.7143 62.8656 97.7143 64.2857Z" fill="#292929"/>
<path d="M113.143 64.2857C113.143 65.7059 111.992 66.8571 110.571 66.8571C109.151 66.8571 108 65.7059 108 64.2857C108 62.8656 109.151 61.7143 110.571 61.7143C111.992 61.7143 113.143 62.8656 113.143 64.2857Z" fill="#292929"/>
<path d="M128.571 64.2857C128.571 65.7059 127.42 66.8571 126 66.8571C124.58 66.8571 123.429 65.7059 123.429 64.2857C123.429 62.8656 124.58 61.7143 126 61.7143C127.42 61.7143 128.571 62.8656 128.571 64.2857Z" fill="#292929"/>
<path d="M144 64.2857C144 65.7059 142.849 66.8571 141.429 66.8571C140.008 66.8571 138.857 65.7059 138.857 64.2857C138.857 62.8656 140.008 61.7143 141.429 61.7143C142.849 61.7143 144 62.8656 144 64.2857Z" fill="#292929"/>
<path d="M5.14286 79.7143C5.14286 81.1344 3.99159 82.2857 2.57143 82.2857C1.15127 82.2857 0 81.1344 0 79.7143C0 78.2941 1.15127 77.1429 2.57143 77.1429C3.99159 77.1429 5.14286 78.2941 5.14286 79.7143Z" fill="#292929"/>
<path d="M20.5714 79.7143C20.5714 81.1344 19.4202 82.2857 18 82.2857C16.5798 82.2857 15.4286 81.1344 15.4286 79.7143C15.4286 78.2941 16.5798 77.1429 18 77.1429C19.4202 77.1429 20.5714 78.2941 20.5714 79.7143Z" fill="#292929"/>
<path d="M36 79.7143C36 81.1344 34.8487 82.2857 33.4286 82.2857C32.0084 82.2857 30.8571 81.1344 30.8571 79.7143C30.8571 78.2941 32.0084 77.1429 33.4286 77.1429C34.8487 77.1429 36 78.2941 36 79.7143Z" fill="#292929"/>
<path d="M51.4286 79.7143C51.4286 81.1344 50.2773 82.2857 48.8571 82.2857C47.437 82.2857 46.2857 81.1344 46.2857 79.7143C46.2857 78.2941 47.437 77.1429 48.8571 77.1429C50.2773 77.1429 51.4286 78.2941 51.4286 79.7143Z" fill="#292929"/>
<path d="M66.8571 79.7143C66.8571 81.1344 65.7059 82.2857 64.2857 82.2857C62.8656 82.2857 61.7143 81.1344 61.7143 79.7143C61.7143 78.2941 62.8656 77.1429 64.2857 77.1429C65.7059 77.1429 66.8571 78.2941 66.8571 79.7143Z" fill="#292929"/>
<path d="M82.2857 79.7143C82.2857 81.1344 81.1344 82.2857 79.7143 82.2857C78.2941 82.2857 77.1429 81.1344 77.1429 79.7143C77.1429 78.2941 78.2941 77.1429 79.7143 77.1429C81.1344 77.1429 82.2857 78.2941 82.2857 79.7143Z" fill="#292929"/>
<path d="M97.7143 79.7143C97.7143 81.1344 96.563 82.2857 95.1429 82.2857C93.7227 82.2857 92.5714 81.1344 92.5714 79.7143C92.5714 78.2941 93.7227 77.1429 95.1429 77.1429C96.563 77.1429 97.7143 78.2941 97.7143 79.7143Z" fill="#292929"/>
<path d="M113.143 79.7143C113.143 81.1344 111.992 82.2857 110.571 82.2857C109.151 82.2857 108 81.1344 108 79.7143C108 78.2941 109.151 77.1429 110.571 77.1429C111.992 77.1429 113.143 78.2941 113.143 79.7143Z" fill="#292929"/>
<path d="M128.571 79.7143C128.571 81.1344 127.42 82.2857 126 82.2857C124.58 82.2857 123.429 81.1344 123.429 79.7143C123.429 78.2941 124.58 77.1429 126 77.1429C127.42 77.1429 128.571 78.2941 128.571 79.7143Z" fill="#292929"/>
<path d="M144 79.7143C144 81.1344 142.849 82.2857 141.429 82.2857C140.008 82.2857 138.857 81.1344 138.857 79.7143C138.857 78.2941 140.008 77.1429 141.429 77.1429C142.849 77.1429 144 78.2941 144 79.7143Z" fill="#292929"/>
<path d="M5.14286 95.1429C5.14286 96.563 3.99159 97.7143 2.57143 97.7143C1.15127 97.7143 0 96.563 0 95.1429C0 93.7227 1.15127 92.5714 2.57143 92.5714C3.99159 92.5714 5.14286 93.7227 5.14286 95.1429Z" fill="#292929"/>
<path d="M20.5714 95.1429C20.5714 96.563 19.4202 97.7143 18 97.7143C16.5798 97.7143 15.4286 96.563 15.4286 95.1429C15.4286 93.7227 16.5798 92.5714 18 92.5714C19.4202 92.5714 20.5714 93.7227 20.5714 95.1429Z" fill="#292929"/>
<path d="M36 95.1429C36 96.563 34.8487 97.7143 33.4286 97.7143C32.0084 97.7143 30.8571 96.563 30.8571 95.1429C30.8571 93.7227 32.0084 92.5714 33.4286 92.5714C34.8487 92.5714 36 93.7227 36 95.1429Z" fill="#292929"/>
<path d="M51.4286 95.1429C51.4286 96.563 50.2773 97.7143 48.8571 97.7143C47.437 97.7143 46.2857 96.563 46.2857 95.1429C46.2857 93.7227 47.437 92.5714 48.8571 92.5714C50.2773 92.5714 51.4286 93.7227 51.4286 95.1429Z" fill="#292929"/>
<path d="M66.8571 95.1429C66.8571 96.563 65.7059 97.7143 64.2857 97.7143C62.8656 97.7143 61.7143 96.563 61.7143 95.1429C61.7143 93.7227 62.8656 92.5714 64.2857 92.5714C65.7059 92.5714 66.8571 93.7227 66.8571 95.1429Z" fill="#292929"/>
<path d="M82.2857 95.1429C82.2857 96.563 81.1344 97.7143 79.7143 97.7143C78.2941 97.7143 77.1429 96.563 77.1429 95.1429C77.1429 93.7227 78.2941 92.5714 79.7143 92.5714C81.1344 92.5714 82.2857 93.7227 82.2857 95.1429Z" fill="#292929"/>
<path d="M97.7143 95.1429C97.7143 96.563 96.563 97.7143 95.1429 97.7143C93.7227 97.7143 92.5714 96.563 92.5714 95.1429C92.5714 93.7227 93.7227 92.5714 95.1429 92.5714C96.563 92.5714 97.7143 93.7227 97.7143 95.1429Z" fill="#292929"/>
<path d="M113.143 95.1429C113.143 96.563 111.992 97.7143 110.571 97.7143C109.151 97.7143 108 96.563 108 95.1429C108 93.7227 109.151 92.5714 110.571 92.5714C111.992 92.5714 113.143 93.7227 113.143 95.1429Z" fill="#292929"/>
<path d="M128.571 95.1429C128.571 96.563 127.42 97.7143 126 97.7143C124.58 97.7143 123.429 96.563 123.429 95.1429C123.429 93.7227 124.58 92.5714 126 92.5714C127.42 92.5714 128.571 93.7227 128.571 95.1429Z" fill="#292929"/>
<path d="M144 95.1429C144 96.563 142.849 97.7143 141.429 97.7143C140.008 97.7143 138.857 96.563 138.857 95.1429C138.857 93.7227 140.008 92.5714 141.429 92.5714C142.849 92.5714 144 93.7227 144 95.1429Z" fill="#292929"/>
<path d="M20.5714 110.571C20.5714 111.992 19.4202 113.143 18 113.143C16.5798 113.143 15.4286 111.992 15.4286 110.571C15.4286 109.151 16.5798 108 18 108C19.4202 108 20.5714 109.151 20.5714 110.571Z" fill="#292929"/>
<path d="M36 110.571C36 111.992 34.8487 113.143 33.4286 113.143C32.0084 113.143 30.8571 111.992 30.8571 110.571C30.8571 109.151 32.0084 108 33.4286 108C34.8487 108 36 109.151 36 110.571Z" fill="#292929"/>
<path d="M51.4286 110.571C51.4286 111.992 50.2773 113.143 48.8571 113.143C47.437 113.143 46.2857 111.992 46.2857 110.571C46.2857 109.151 47.437 108 48.8571 108C50.2773 108 51.4286 109.151 51.4286 110.571Z" fill="#292929"/>
<path d="M66.8571 110.571C66.8571 111.992 65.7059 113.143 64.2857 113.143C62.8656 113.143 61.7143 111.992 61.7143 110.571C61.7143 109.151 62.8656 108 64.2857 108C65.7059 108 66.8571 109.151 66.8571 110.571Z" fill="#292929"/>
<path d="M82.2857 110.571C82.2857 111.992 81.1344 113.143 79.7143 113.143C78.2941 113.143 77.1429 111.992 77.1429 110.571C77.1429 109.151 78.2941 108 79.7143 108C81.1344 108 82.2857 109.151 82.2857 110.571Z" fill="#292929"/>
<path d="M97.7143 110.571C97.7143 111.992 96.563 113.143 95.1429 113.143C93.7227 113.143 92.5714 111.992 92.5714 110.571C92.5714 109.151 93.7227 108 95.1429 108C96.563 108 97.7143 109.151 97.7143 110.571Z" fill="#292929"/>
<path d="M113.143 110.571C113.143 111.992 111.992 113.143 110.571 113.143C109.151 113.143 108 111.992 108 110.571C108 109.151 109.151 108 110.571 108C111.992 108 113.143 109.151 113.143 110.571Z" fill="#292929"/>
<path d="M128.571 110.571C128.571 111.992 127.42 113.143 126 113.143C124.58 113.143 123.429 111.992 123.429 110.571C123.429 109.151 124.58 108 126 108C127.42 108 128.571 109.151 128.571 110.571Z" fill="#292929"/>
<path d="M36 126C36 127.42 34.8487 128.571 33.4286 128.571C32.0084 128.571 30.8571 127.42 30.8571 126C30.8571 124.58 32.0084 123.429 33.4286 123.429C34.8487 123.429 36 124.58 36 126Z" fill="#292929"/>
<path d="M51.4286 126C51.4286 127.42 50.2773 128.571 48.8571 128.571C47.437 128.571 46.2857 127.42 46.2857 126C46.2857 124.58 47.437 123.429 48.8571 123.429C50.2773 123.429 51.4286 124.58 51.4286 126Z" fill="#292929"/>
<path d="M66.8571 126C66.8571 127.42 65.7059 128.571 64.2857 128.571C62.8656 128.571 61.7143 127.42 61.7143 126C61.7143 124.58 62.8656 123.429 64.2857 123.429C65.7059 123.429 66.8571 124.58 66.8571 126Z" fill="#292929"/>
<path d="M82.2857 126C82.2857 127.42 81.1344 128.571 79.7143 128.571C78.2941 128.571 77.1429 127.42 77.1429 126C77.1429 124.58 78.2941 123.429 79.7143 123.429C81.1344 123.429 82.2857 124.58 82.2857 126Z" fill="#292929"/>
<path d="M97.7143 126C97.7143 127.42 96.563 128.571 95.1429 128.571C93.7227 128.571 92.5714 127.42 92.5714 126C92.5714 124.58 93.7227 123.429 95.1429 123.429C96.563 123.429 97.7143 124.58 97.7143 126Z" fill="#292929"/>
<path d="M113.143 126C113.143 127.42 111.992 128.571 110.571 128.571C109.151 128.571 108 127.42 108 126C108 124.58 109.151 123.429 110.571 123.429C111.992 123.429 113.143 124.58 113.143 126Z" fill="#292929"/>
<path d="M51.4286 141.429C51.4286 142.849 50.2773 144 48.8571 144C47.437 144 46.2857 142.849 46.2857 141.429C46.2857 140.008 47.437 138.857 48.8571 138.857C50.2773 138.857 51.4286 140.008 51.4286 141.429Z" fill="#292929"/>
<path d="M66.8571 141.429C66.8571 142.849 65.7059 144 64.2857 144C62.8656 144 61.7143 142.849 61.7143 141.429C61.7143 140.008 62.8656 138.857 64.2857 138.857C65.7059 138.857 66.8571 140.008 66.8571 141.429Z" fill="#292929"/>
<path d="M82.2857 141.429C82.2857 142.849 81.1344 144 79.7143 144C78.2941 144 77.1429 142.849 77.1429 141.429C77.1429 140.008 78.2941 138.857 79.7143 138.857C81.1344 138.857 82.2857 140.008 82.2857 141.429Z" fill="#292929"/>
<path d="M97.7143 141.429C97.7143 142.849 96.563 144 95.1429 144C93.7227 144 92.5714 142.849 92.5714 141.429C92.5714 140.008 93.7227 138.857 95.1429 138.857C96.563 138.857 97.7143 140.008 97.7143 141.429Z" fill="#292929"/>
</svg>
