<svg width="150" height="40" viewBox="0 0 150 40" fill="none" xmlns="http://www.w3.org/2000/svg">
<g clip-path="url(#clip0_90_7)">
<g clip-path="url(#clip1_90_7)">
<g clip-path="url(#clip2_90_7)">
<g clip-path="url(#clip3_90_7)">
<path d="M13.5978 0.0542965C13.652 0.0829821 17.8336 2.39055 22.8982 5.18577C27.9595 7.9778 32.1062 10.2631 32.1157 10.2631C32.1253 10.2631 36.2719 7.9778 41.3332 5.18577C46.3978 2.39055 50.5826 0.0829821 50.6336 0.0542965C50.7229 0.00648785 49.2504 0.00330067 32.1157 0.00330067C14.9811 0.00330067 13.5085 0.00648785 13.5978 0.0542965Z" fill="white"/>
<path d="M12.1348 2.68053C12.3547 3.12675 16.53 11.3913 21.4065 21.0518C26.283 30.7124 30.4328 38.9291 30.6272 39.3148L30.981 40.016V26.2471V12.4781L21.6391 7.33073C16.5013 4.50045 12.1698 2.1132 12.0136 2.02715L11.73 1.87416L12.1348 2.68053Z" fill="white"/>
<path d="M42.8662 7.18093L33.2502 12.4781V26.2471V40.016L33.604 39.3148C33.7985 38.9291 37.9483 30.7124 42.8247 21.0518C51.7554 3.36898 52.5044 1.88054 52.4917 1.88054C52.4853 1.88054 48.1538 4.2646 42.8662 7.18093Z" fill="white"/>
<path d="M58.8248 7.95543C58.2352 8.03512 57.6264 8.20723 57.2344 8.40484C56.5619 8.74269 56.0041 9.30364 55.6599 9.99209C55.3093 10.6965 55.1117 11.7801 55.1531 12.765C55.2296 14.5754 56.1125 15.6558 57.8814 16.0957C58.64 16.2869 58.7547 16.2933 61.5021 16.3156C64.1252 16.3379 64.1061 16.3379 64.3165 16.4718C64.4726 16.5738 64.5332 16.8383 64.4312 16.9817C64.3515 17.0997 64.1539 17.1762 63.8543 17.2112C63.679 17.2303 61.993 17.2431 59.3603 17.2431H55.1436V19.1076V20.9722H59.6057C62.5284 20.9722 64.1762 20.9594 64.3802 20.9371C66.6113 20.6949 67.8575 19.5188 68.1603 17.3706C68.342 16.0861 68.1826 14.8622 67.73 14.0686C67.6535 13.9347 67.491 13.718 67.3698 13.5873C66.8886 13.071 66.334 12.7937 65.4543 12.6311C65.2057 12.5833 64.7882 12.5769 62.2511 12.561C59.5005 12.5419 59.3284 12.5387 59.1977 12.4813C59.0097 12.3985 58.9045 12.2646 58.9045 12.1084C58.9045 11.863 59.083 11.7228 59.4687 11.6654C59.6025 11.6463 61.3332 11.6335 63.9659 11.6335H68.2432V9.76898V7.90444L63.6949 7.90763C60.0551 7.91081 59.0798 7.92037 58.8248 7.95543Z" fill="white"/>
<path d="M69.1675 9.769V11.6335H75.7013H82.2352V9.769V7.90446H75.7013H69.1675V9.769Z" fill="white"/>
<path d="M88.753 7.92352C86.8853 8.11794 85.6391 8.64384 84.7052 9.63189C83.6821 10.7092 83.1594 12.3411 83.1594 14.4383C83.1594 17.9283 84.5746 20.0319 87.3825 20.7203C88.1889 20.9179 88.5491 20.953 89.7092 20.953C90.8056 20.953 91.1339 20.9275 91.8479 20.7809C93.6391 20.4112 94.863 19.5506 95.5738 18.1673C95.9722 17.3833 96.173 16.5227 96.2431 15.2574L96.2622 14.9163H94.3849H92.5076L92.4853 15.1873C92.4025 16.204 91.8542 16.8478 90.8566 17.0996C90.2319 17.259 89.2758 17.2654 88.6797 17.1124C87.8001 16.8893 87.2391 16.3156 87.0096 15.404C86.9459 15.1554 86.9363 15.0407 86.9363 14.4383C86.9363 13.6638 86.9809 13.4024 87.1849 12.9626C87.4176 12.4654 87.7172 12.1658 88.2112 11.9363C88.7403 11.6877 89.3746 11.5952 90.1299 11.659C90.6973 11.7068 91.0383 11.7928 91.4112 11.9713C92.0646 12.2901 92.4184 12.8446 92.4853 13.6574L92.5076 13.9283L94.3754 13.9219L96.2431 13.9124L96.2335 13.5618C96.1666 11.1363 95.2009 9.4534 93.3873 8.59284C92.7881 8.30918 92.0423 8.09882 91.2232 7.98089C90.8726 7.93308 89.0845 7.89165 88.753 7.92352Z" fill="white"/>
<path d="M97.1516 14.4383V20.9722H99.0321H100.913V18.6455V16.3188H101.846H102.777L106.506 20.0479L110.235 23.777H113.04H115.845L114.442 22.3746L113.04 20.9722H118.659H124.275V19.1077V17.2431H117.725H111.176V18.1738V19.1077L109.614 17.5459C108.756 16.6885 108.052 15.9778 108.052 15.9682C108.052 15.9587 108.179 15.8949 108.332 15.8248C109.037 15.5029 109.563 15.012 109.878 14.3905C109.983 14.1802 110.136 13.6861 110.191 13.3865C110.248 13.0742 110.248 11.9427 110.191 11.5379C110.133 11.1268 109.99 10.5722 109.85 10.2375C109.668 9.80088 109.464 9.48534 109.139 9.14112C108.565 8.53554 107.896 8.19769 106.866 7.99371L106.506 7.9204L101.83 7.91084L97.1516 7.90128V14.4383ZM105.926 11.6654C106.168 11.7005 106.366 11.7897 106.439 11.8949C106.468 11.9332 106.49 12.032 106.49 12.1116C106.49 12.2869 106.423 12.373 106.207 12.475C106.06 12.5419 106.034 12.5419 103.488 12.5515L100.913 12.561V12.0957V11.6336H103.313C104.709 11.6336 105.799 11.6463 105.926 11.6654Z" fill="white"/>
<path d="M111.175 9.769V11.6335H117.725H124.275V9.769V7.90446H117.725H111.175V9.769Z" fill="white"/>
<path d="M125.167 9.76898V11.6335H127.51H129.853V16.3028V20.9722H131.717H133.582V16.3028V11.6335H135.924H138.267V9.76898V7.90444H131.717H125.167V9.76898Z" fill="white"/>
<path d="M69.1675 14.4382V16.3187H75.7013H82.2352V14.4382V12.5578H75.7013H69.1675V14.4382Z" fill="white"/>
<path d="M111.175 14.4382V16.3187L117.719 16.3124L124.259 16.3028V14.4382V12.5737L117.719 12.5641L111.175 12.5578V14.4382Z" fill="white"/>
<path d="M69.1675 19.1076V20.9722H75.7013H82.2352V19.1076V17.2431H75.7013H69.1675V19.1076Z" fill="white"/>
<path d="M97.1516 31.4263V37.9602H103.701H110.251V36.0957V34.2311H105.582H100.913V29.5618V24.8925H99.0321H97.1516V31.4263Z" fill="white"/>
<path d="M116.769 24.9116C115.022 25.0965 113.814 25.5682 112.922 26.416C112.001 27.2925 111.494 28.3857 111.252 30.024C111.201 30.3522 111.194 30.7953 111.185 34.1738L111.172 37.9602H113.056H114.936V36.5578V35.1554H117.725H120.514V36.5578V37.9602H122.394H124.275V34.7475C124.275 31.4773 124.253 30.5498 124.163 29.9379C124.039 29.0996 123.822 28.373 123.51 27.7674C123.016 26.7921 122.324 26.1036 121.359 25.6255C120.692 25.2909 120.071 25.106 119.163 24.969C118.853 24.9212 117.084 24.8797 116.769 24.9116ZM118.184 28.6534C118.611 28.6981 118.939 28.7873 119.265 28.9435C119.615 29.1124 119.998 29.4821 120.17 29.8168C120.367 30.1961 120.514 30.8367 120.514 31.3148V31.4263H117.722H114.927L114.946 31.0502C114.984 30.2407 115.287 29.5745 115.79 29.1793C116.345 28.7427 117.209 28.5546 118.184 28.6534Z" fill="white"/>
<path d="M125.167 31.4263V37.9602H129.63C132.552 37.9602 134.2 37.9475 134.404 37.9251C136.288 37.7212 137.451 36.8734 137.964 35.3371C138.245 34.4925 138.35 33.2239 138.187 32.6216C138.025 32.0096 137.614 31.608 137.034 31.4901C136.744 31.4295 136.74 31.4232 136.973 31.3722C137.614 31.2383 138.022 30.8526 138.187 30.2311C138.261 29.9634 138.283 29.3451 138.238 28.8765C138.111 27.5761 137.738 26.6837 137.037 26.008C136.485 25.4789 135.845 25.173 134.882 24.9817L134.522 24.9084L129.846 24.8988L125.167 24.8893V31.4263ZM133.942 28.6534C134.184 28.6885 134.382 28.7777 134.455 28.8829C134.484 28.9212 134.506 29.0136 134.506 29.0869C134.506 29.2526 134.404 29.3865 134.213 29.4694C134.082 29.5267 133.929 29.5299 131.504 29.5395L128.928 29.549V29.0837V28.6216H131.328C132.724 28.6216 133.814 28.6343 133.942 28.6534ZM134.213 33.3833C134.407 33.4694 134.506 33.5969 134.506 33.7753C134.506 33.957 134.398 34.0749 134.152 34.1546C133.993 34.2088 133.783 34.212 131.456 34.2247L128.928 34.2343V33.769V33.3036L131.504 33.3132C133.929 33.3228 134.082 33.3259 134.213 33.3833Z" fill="white"/>
</g>
</g>
</g>
</g>
<defs>
<clipPath id="clip0_90_7">
<rect width="126.53" height="40" fill="white" transform="translate(11.7351)"/>
</clipPath>
<clipPath id="clip1_90_7">
<rect width="126.53" height="40" fill="white" transform="translate(11.7351)"/>
</clipPath>
<clipPath id="clip2_90_7">
<rect width="126.53" height="40" fill="white" transform="translate(11.7351)"/>
</clipPath>
<clipPath id="clip3_90_7">
<rect width="126.534" height="40" fill="white" transform="translate(11.7332)"/>
</clipPath>
</defs>
</svg>
