<svg width="150" height="100" viewBox="0 0 150 100" fill="none" xmlns="http://www.w3.org/2000/svg">
<g clip-path="url(#clip0_90_5)">
<g clip-path="url(#clip1_90_5)">
<g clip-path="url(#clip2_90_5)">
<g clip-path="url(#clip3_90_5)">
<path d="M69.8566 50.6901L66.0024 54.9609H64.5441V48.0729H61.3149V62.4088H64.5441V58.138H66.0024L69.8566 62.4088H74.1795L68.828 56.5104L74.1925 50.6901H69.8566Z" fill="white"/>
<path fill-rule="evenodd" clip-rule="evenodd" d="M150.911 53.7239V59.4661C150.911 60.2734 150.625 60.9765 150.065 61.5364C149.57 62.0963 148.815 62.4088 147.943 62.4088H138.945V48.0729H142.227V50.6901H148.438L148.49 50.7031C149.089 50.8072 149.661 51.1458 150.078 51.6536C150.612 52.1484 150.911 52.9036 150.911 53.7239ZM142.279 53.9974V59.1927H147.708V53.9974H142.279Z" fill="white"/>
<path d="M75.7812 50.026H78.9844V47.4219H75.7812V50.026Z" fill="white"/>
<path d="M58.5025 54.5834C57.9426 54.0365 57.2395 53.7631 56.4192 53.7631H48.4244V51.5495H56.1588V52.6693H59.3619V51.2761C59.3619 50.4297 59.0364 49.6615 58.4765 49.1667C57.9166 48.6198 57.2135 48.3334 56.3931 48.3334H48.1379C47.2525 48.3334 46.5364 48.6329 46.0155 49.2058C45.4556 49.7657 45.1692 50.4688 45.1692 51.2761V54.0105C45.1692 54.8959 45.4687 55.612 46.0546 56.1198C46.6275 56.6797 47.3176 56.9532 48.1379 56.9532H56.1327V59.1667H48.3984V58.0599H45.1952V59.4401C45.1952 60.3386 45.4947 61.0417 46.0937 61.5625C46.7056 62.1224 47.3958 62.4089 48.164 62.4089H48.6197H49.0754H56.4192C57.2916 62.4089 58.0338 62.0964 58.5416 61.5365C59.1015 60.9766 59.3879 60.2735 59.3879 59.4662V56.7058C59.3879 55.8594 59.0624 55.0912 58.5025 54.5834Z" fill="white"/>
<path d="M75.7812 62.3828H78.9844V50.6901H75.7812V62.3828Z" fill="white"/>
<path d="M133.516 58.763L133.424 58.789V59.1927H127.969V50.6901H124.766V59.427C124.766 60.2734 125.091 61.0547 125.651 61.5494C126.211 62.0963 126.914 62.3698 127.734 62.3698H133.685C134.57 62.3698 135.273 62.0963 135.846 61.5234C136.419 60.9635 136.706 60.2604 136.706 59.427V50.6901H133.516V58.763Z" fill="white"/>
<path d="M120.365 48.0729H117.161V59.414C117.096 60.1953 117.383 60.9244 117.995 61.5234L118.255 61.7968H118.307C118.815 62.1744 119.414 62.3697 120.104 62.3697H122.695V59.1927H120.365V48.0729Z" fill="white"/>
<path d="M101.601 49.1276L101.289 49.4011V49.4792C100.885 49.987 100.69 50.586 100.69 51.2761V59.4011C100.69 60.2865 100.989 61.0026 101.575 61.5235C102.135 62.0703 102.838 62.3438 103.659 62.3438H114.818V59.1537H103.919V51.5365H114.818V48.3464H103.672C102.93 48.3203 102.226 48.5808 101.601 49.1276Z" fill="white"/>
<path d="M92.2135 51.5234C91.6536 50.9765 91.0025 50.6901 90.2734 50.6901H81.2629V62.3828H84.4661V53.9062H89.8958V62.3828H93.0989V53.6458C93.0989 52.7994 92.7734 52.0182 92.2135 51.5234Z" fill="white"/>
<path d="M95.4165 62.3698H98.6196V59.1927H95.4165V62.3698Z" fill="white"/>
<path fill-rule="evenodd" clip-rule="evenodd" d="M29.5571 49.974C30.0389 50.4688 30.2993 51.1198 30.2993 51.8099C30.2993 52.5 30.0259 53.1771 29.5571 53.6459L20.9374 62.2787C20.1821 63.0339 19.1665 63.4636 18.0858 63.4636C16.992 63.4636 15.9764 63.0339 15.2082 62.2787L13.3592 60.4297C12.4478 59.5052 12.1874 57.8646 13.3592 56.6927L22.1483 47.8907C22.8384 47.2006 23.815 46.8099 24.8045 46.8099C25.8071 46.8099 26.7707 47.2006 27.4738 47.8907L29.5571 49.974ZM26.4061 51.7969L24.9738 50.3776C24.9087 50.3256 24.7004 50.3256 24.6353 50.3776L16.4712 58.5417L17.7082 59.7787C17.7863 59.8698 17.9165 59.9089 18.0597 59.9089C18.0684 59.9089 18.0728 59.9089 18.0728 59.9089C18.216 59.9089 18.3462 59.8568 18.4374 59.7787L26.4061 51.7969Z" fill="white"/>
<path fill-rule="evenodd" clip-rule="evenodd" d="M41.1719 48.4245C41.3802 49.1276 41.1849 49.8829 40.6641 50.4037L37.4479 53.6329L38.4766 54.6485C39.2969 55.4688 39.7266 56.5495 39.7136 57.6823C39.7005 58.8021 39.2448 59.8308 38.4505 60.599L26.3932 72.7735C25.5729 73.5938 24.5443 74.0235 23.4115 74.0235C22.2787 74.0235 21.224 73.5678 20.4427 72.7474L18.6198 70.8985C16.9922 71.1329 15.3386 70.5469 14.0495 69.2448L7.43491 62.6303L3.94533 63.1901C3.8672 63.2032 3.75002 63.2032 3.63283 63.2032C2.95574 63.2032 2.33075 62.9037 1.97918 62.4089C1.84029 62.2006 1.73179 61.9879 1.65366 61.7709C1.41929 61.0678 1.62762 60.2995 2.18752 59.7266L5.31252 56.6146L4.0495 55.3386C3.25523 54.5704 2.7995 53.5157 2.7995 52.3698C2.7995 51.224 3.25523 50.1693 4.07554 49.3881L15.612 37.7214C16.4063 36.9011 17.461 36.4584 18.5938 36.4584C19.7266 36.4584 20.7682 36.9141 21.5495 37.7474L23.2943 39.4922C23.8412 39.323 24.4271 39.2318 25.013 39.2318C26.4844 39.2318 27.8646 39.7917 28.8932 40.8204L35.612 47.5391L38.7891 46.9792C38.9063 46.9532 39.0625 46.9271 39.2318 46.9271C39.8438 46.9271 40.4167 47.2006 40.7943 47.6954L40.8203 47.7214C40.8334 47.7344 40.8985 47.8386 40.9896 47.9818C41.1068 48.2032 41.1589 48.3464 41.1719 48.4245ZM7.81252 54.1276L20.3906 41.5625L18.9974 40.1693C18.8802 40.0391 18.75 39.974 18.5938 39.974C18.4245 39.974 18.2552 40.0521 18.112 40.1954L6.52345 51.9141C6.38457 52.0443 6.31512 52.1962 6.31512 52.3698C6.31512 52.5434 6.38022 52.6954 6.51043 52.8256L6.52345 52.8386L7.81252 54.1276ZM35.0781 51.0157C34.349 50.9115 33.6849 50.573 33.138 50.0261L26.4193 43.3073C26.0547 42.9428 25.5599 42.7474 25.0261 42.7474C24.4922 42.7474 23.9974 42.9428 23.6328 43.3073L7.79949 59.1146C8.65887 59.1928 9.4271 59.5573 9.97398 60.1693L16.5495 66.7579C16.9922 67.1875 17.461 67.4219 17.9297 67.4219H18.0078C18.4766 67.4089 19.0104 67.1224 19.4792 66.6146L19.4922 66.6016L35.0781 51.0157ZM36.211 57.6303C36.211 57.461 36.1328 57.2787 35.9896 57.1355L34.974 56.1198L22.0182 69.0756C21.9835 69.119 21.9445 69.158 21.9011 69.1928L22.9948 70.2865C23.125 70.4254 23.2682 70.4948 23.4245 70.4948C23.5938 70.4948 23.7761 70.4167 23.9063 70.2865L36.0026 58.0599C36.1328 57.9427 36.1979 57.7995 36.211 57.6303Z" fill="white"/>
</g>
</g>
</g>
</g>
<defs>
<clipPath id="clip0_90_5">
<rect width="150" height="100" fill="white"/>
</clipPath>
<clipPath id="clip1_90_5">
<rect width="150" height="100" fill="white"/>
</clipPath>
<clipPath id="clip2_90_5">
<rect width="150" height="100" fill="white"/>
</clipPath>
<clipPath id="clip3_90_5">
<rect width="150" height="100" fill="white"/>
</clipPath>
</defs>
</svg>
