<svg width="150" height="80" viewBox="0 0 150 80" fill="none" xmlns="http://www.w3.org/2000/svg">
<g clip-path="url(#clip0_90_6)">
<g clip-path="url(#clip1_90_6)">
<g clip-path="url(#clip2_90_6)">
<g clip-path="url(#clip3_90_6)">
<path d="M38.0689 68.2067H33.3253L32.1782 65.9175H42.7202L43.8677 68.2067H40.5579V79.9738H38.0689V68.2067Z" fill="white"/>
<path d="M98.6956 65.9182H102.61V79.9742H98.6956V65.9182Z" fill="white"/>
<path d="M109.761 69.3336H105.545V65.9202H117.871V69.3336H113.655V79.9761H109.761V69.3336Z" fill="white"/>
<path d="M53.2668 74.6532C53.7619 74.5194 54.2136 74.329 54.6219 74.0814C55.0299 73.8338 55.3818 73.5325 55.6757 73.1775C55.9701 72.8227 56.201 72.4142 56.3683 71.9524C56.5354 71.4908 56.6193 70.9725 56.6193 70.3965V70.356C56.6193 69.7408 56.5188 69.179 56.3181 68.669C56.1174 68.1607 55.8297 67.7123 55.4549 67.3243C55.0001 66.8825 54.4309 66.5382 53.7491 66.2899C53.0661 66.0427 52.283 65.9189 51.3997 65.9189H45.8728L47.0201 68.2079H50.9581C51.8843 68.2079 52.8211 68.4543 53.3313 68.8514C53.8413 69.2481 54.1103 69.7204 54.1103 70.4866V70.5272C54.1103 71.2527 53.8481 71.8279 53.3248 72.2513C52.801 72.675 52.0965 72.8862 51.2105 72.8862H45.4238L46.5705 75.0756H50.6867L54.1505 79.9748H57.061L53.2668 74.6532Z" fill="white"/>
<path d="M65.701 65.8177H63.4124L58.4736 77.1249L60.0377 79.3192L61.2042 76.5805L62.1079 74.3915L64.5165 68.7692L66.9458 74.3915L67.8488 76.5805L69.2742 79.9738H71.8839L65.701 65.8177Z" fill="white"/>
<path d="M82.7294 70.1453C82.3682 69.2954 81.8557 68.5558 81.1937 67.9268C80.5312 67.2975 79.7412 66.8051 78.825 66.451C77.9081 66.0959 76.9008 65.9188 75.8035 65.9188H69.4092L70.3829 68.1473H75.7838C76.5197 68.1473 77.1892 68.2687 77.7912 68.5104C78.3934 68.7525 78.9051 69.0853 79.3273 69.5084C79.7482 69.9321 80.0765 70.4393 80.3104 71.0306C80.5441 71.6225 80.6616 72.2612 80.6616 72.9464V72.9866C80.6616 73.6725 80.5441 74.3077 80.3104 74.8924C80.0765 75.4773 79.7482 75.9815 79.3273 76.4049C78.9051 76.8286 78.3934 77.158 77.7912 77.3928C77.1892 77.6283 76.5197 77.7458 75.7838 77.7458H74.5753L75.5457 79.9685C76.5208 79.9366 77.9969 79.759 78.825 79.4324C79.7412 79.0704 80.5312 78.5755 81.1937 77.9462C81.8557 77.3179 82.3682 76.5748 82.7294 75.718C83.0909 74.8612 83.2715 73.9378 83.2715 72.9464V72.9068C83.2715 71.9155 83.0909 70.996 82.7294 70.1453Z" fill="white"/>
<path d="M86.379 73.9214H91.8131L92.9602 71.6929H86.3506C86.3981 72.0919 86.4251 72.4963 86.4251 72.9083V72.9477C86.4251 73.2765 86.4096 73.601 86.379 73.9214Z" fill="white"/>
<path d="M95.8288 77.6766H85.2112C84.764 78.4714 84.2069 79.1906 83.5441 79.8199C83.5137 79.849 83.4811 79.8768 83.4495 79.9053H95.8288V77.6766Z" fill="white"/>
<path d="M85.1454 68.0786H95.8306V65.85H83.3179C83.3945 65.9186 83.4717 65.9856 83.546 66.0559C84.1765 66.6555 84.71 67.3341 85.1454 68.0786Z" fill="white"/>
<path d="M55.9725 26.2933C55.9725 15.7251 64.5372 7.15789 75.1032 7.15789C80.4128 7.15789 85.2166 9.32284 88.6828 12.8177L101.302 25.8943C101.089 11.6006 89.4445 0.0775146 75.1032 0.0775146C65.2883 0.0775146 56.7355 5.47635 52.2462 13.465H43.1477L55.9725 26.2933Z" fill="white"/>
<path d="M75.1011 52.5118C84.9166 52.5118 93.4681 47.1137 97.9581 39.1232H107.057L94.2312 26.2942C94.2312 36.863 85.667 45.4321 75.1011 45.4321C69.7915 45.4321 64.9877 43.2653 61.5215 39.7717L48.9016 26.6944C49.1158 40.9881 60.7598 52.5118 75.1011 52.5118Z" fill="white"/>
<path d="M84.086 31.9021C84.5119 31.2095 84.5258 30.7985 82.8762 29.763C82.3324 29.422 81.1882 28.5352 79.9765 27.5968C78.4196 26.3899 76.0657 24.5659 75.6485 24.4846C75.406 24.4852 75.1765 24.5999 74.7198 24.8274C74.3228 25.0253 73.7797 25.297 72.9511 25.631C70.9834 26.4246 69.6268 26.3331 68.7037 25.3883C68.3622 25.0373 68.0138 24.5999 68.022 24.01C68.0308 23.3539 68.4712 22.6385 69.4498 21.6887C70.0628 21.0938 71.2127 20.2291 72.0098 19.6492C70.95 19.7147 69.1826 19.8849 67.1789 20.3229L64.4475 27.8937L64.5842 28.0304C64.9617 27.767 65.753 27.3031 66.6364 27.3031C67.2671 27.3031 68.1467 27.5495 68.8417 28.6871C68.9028 28.6827 68.9759 28.6796 69.0565 28.6796C69.5883 28.6796 70.8529 28.8328 71.5 30.2005C72.0394 30.2161 73.4502 30.4166 74.0229 32.0131C74.4841 32.088 75.5244 32.3824 75.9679 33.5269C76.3964 34.6331 76.1286 35.6888 75.2346 36.4715C75.5244 36.7104 76.0827 36.9953 76.6169 36.8068C77.0567 36.6493 77.2155 36.3531 77.271 36.1325C77.3528 35.8066 77.2634 35.4278 77.0479 35.189L76.9988 35.1379C76.8847 35.0118 76.8917 34.8171 77.0139 34.6992C77.1355 34.5814 77.3289 34.5808 77.4518 34.6998L77.465 34.7137C77.4688 34.7175 77.5123 34.7629 77.5161 34.7667C77.6214 34.8719 78.23 35.4524 78.8386 35.4524C79.0813 35.4524 79.2961 35.3597 79.4952 35.1707C80.2217 34.478 79.6968 33.8415 79.6344 33.7708C79.5197 33.6417 79.5311 33.4437 79.6596 33.3285C79.7888 33.2125 79.9867 33.2225 80.1032 33.3498C80.1088 33.3561 80.6596 33.9492 81.277 33.9492C81.4466 33.9492 81.6028 33.9057 81.7553 33.815C82.5259 33.3606 82.1396 32.3862 82.1227 32.3446C82.0704 32.2173 82.1075 32.0704 82.214 31.9822C82.3204 31.8952 82.4705 31.8845 82.587 31.9614C82.5908 31.9646 83.0362 32.2513 83.4729 32.2513C83.7444 32.2513 83.9392 32.1404 84.086 31.9021Z" fill="white"/>
<path d="M75.7198 19.8201C74.9611 19.597 73.7148 20.1592 72.0419 21.4664C70.1719 22.9292 69.3218 23.886 69.582 24.2339C70.2639 25.1421 71.541 24.9448 73.9454 23.6565C74.6429 23.2822 75.1778 23.0509 75.6889 23.0509C76.3057 23.0509 76.8237 23.3994 77.438 23.8545C81.5562 26.9125 83.5939 28.4535 84.1502 28.8764L84.9083 28.4724L82.4377 21.9479C81.5367 21.658 76.7058 20.1063 75.7198 19.8201Z" fill="white"/>
<path d="M62.7458 27.8436L65.9788 19.0937L63.0073 18.3405L60.8423 27.1724L62.7458 27.8436Z" fill="white"/>
<path d="M74.5715 33.6667C73.7882 32.8657 72.5299 33.4827 72.5299 33.4827C72.5299 33.4827 73.3069 32.8669 72.4267 31.9663C71.5451 31.065 70.1249 31.9871 70.1249 31.9871C70.1249 31.9871 70.9409 31.2383 70.0355 30.3124C69.13 29.3854 67.7533 30.4253 67.7533 30.4253C67.8957 30.0276 68.0065 29.3986 67.6638 29.0475C67.321 28.6971 66.7313 28.4021 65.6589 28.7519C65.0092 28.965 63.9185 29.6683 64.5588 30.5715C65.1996 31.4741 66.5618 31.1854 66.5618 31.1854C66.5618 31.1854 65.4295 31.5856 66.5152 32.5972C67.6002 33.6081 68.9051 32.7667 68.9051 32.7667C68.9051 32.7667 68.0141 33.4625 68.8704 34.1797C69.7274 34.8963 71.2893 34.1923 71.2893 34.1923C70.847 34.655 71.0077 36.1304 72.4928 35.9672C73.9772 35.8045 75.3547 34.4678 74.5715 33.6667Z" fill="white"/>
<path d="M83.6455 20.3425L86.9497 29.0824L88.7518 28.3619L86.3889 19.5975L83.6455 20.3425Z" fill="white"/>
</g>
</g>
</g>
</g>
<defs>
<clipPath id="clip0_90_6">
<rect width="85.84" height="80" fill="white" transform="translate(32.0801)"/>
</clipPath>
<clipPath id="clip1_90_6">
<rect width="85.84" height="80" fill="white" transform="translate(32.0801)"/>
</clipPath>
<clipPath id="clip2_90_6">
<rect width="85.84" height="80" fill="white" transform="translate(32.0801)"/>
</clipPath>
<clipPath id="clip3_90_6">
<rect width="85.8462" height="80" fill="white" transform="translate(32.0769)"/>
</clipPath>
</defs>
</svg>
