<svg width="56" height="31" viewBox="0 0 56 31" fill="none" xmlns="http://www.w3.org/2000/svg">
<path d="M12.5102 0.499998L13.0102 0.499998L13.0102 -1.87914e-06L16.1325 -1.74267e-06L16.1325 0.499998L16.6325 0.499998L18.6936 0.499998C19.5652 0.499999 20.0534 1.41736 19.6205 2.09892L18.6425 3.63842L18.3744 4.06046L18.7965 4.32856L17.3767 6.56346L16.9547 6.29536L16.6866 6.7174L14.7307 9.79639L14.4626 10.2184L14.8846 10.4865L13.4649 12.7214L13.0428 12.4533L12.7747 12.8754L11.7968 14.4149C11.3749 15.0789 11.3749 15.921 11.7968 16.5851L12.7747 18.1246L13.0428 18.5467L13.4649 18.2786L14.8846 20.5135L14.4626 20.7816L14.7307 21.2036L16.6866 24.2826L16.9547 24.7046L17.3767 24.4365L18.7965 26.6714L18.3744 26.9395L18.6425 27.3616L19.6205 28.9011C20.0534 29.5826 19.5652 30.5 18.6936 30.5L16.6325 30.5L16.1325 30.5L16.1325 31L13.0102 31L13.0102 30.5L12.5102 30.5L10.4491 30.5C10.0674 30.5 9.71808 30.3072 9.52222 29.9989L8.4145 28.2552L8.1464 27.8331L7.72435 28.1012L6.04512 25.4578L6.46717 25.1897L6.19907 24.7677L3.98363 21.2802L3.71553 20.8581L3.29348 21.1262L1.61425 18.4828L2.0363 18.2147L1.7682 17.7927L0.660476 16.0489C0.446506 15.7121 0.446506 15.2879 0.660476 14.9511L1.7682 13.2073L2.0363 12.7853L1.61425 12.5172L3.29348 9.87377L3.71553 10.1419L3.98363 9.71983L6.19907 6.23232L6.46717 5.81028L6.04512 5.54218L7.72435 2.89877L8.1464 3.16687L8.4145 2.74483L9.52222 1.00108C9.71808 0.692751 10.0674 0.499998 10.4491 0.499998L12.5102 0.499998ZM36.5008 3.63842L36.2327 4.06046L36.6547 4.32856L35.235 6.56346L34.813 6.29536L34.5448 6.7174L32.5889 9.79639L32.3208 10.2184L32.7429 10.4865L31.3231 12.7214L30.9011 12.4533L30.633 12.8754L29.655 14.4149C29.2332 15.079 29.2332 15.921 29.655 16.5851L30.633 18.1246L30.9011 18.5467L31.3231 18.2786L32.7429 20.5135L32.3208 20.7816L32.5889 21.2036L34.5448 24.2826L34.813 24.7046L35.235 24.4365L36.6547 26.6714L36.2327 26.9395L36.5008 27.3616L37.4787 28.9011C37.9117 29.5826 37.4235 30.5 36.5518 30.5L34.4907 30.5L33.9907 30.5L33.9907 31L30.8685 31L30.8685 30.5L30.3685 30.5L28.3074 30.5C27.9257 30.5 27.5763 30.3072 27.3805 29.9989L26.2728 28.2552L26.0047 27.8331L25.5826 28.1012L23.9034 25.4578L24.3254 25.1897L24.0573 24.7677L21.8419 21.2802L21.5738 20.8581L21.1517 21.1262L19.4725 18.4828L19.8946 18.2147L19.6265 17.7927L18.5187 16.0489C18.3048 15.7121 18.3048 15.2879 18.5187 14.9511L19.6265 13.2073L19.8946 12.7853L19.4725 12.5172L21.1517 9.87377L21.5738 10.1419L21.8419 9.71983L24.0573 6.23233L24.3254 5.81028L23.9034 5.54218L25.5826 2.89877L26.0047 3.16687L26.2728 2.74483L27.3805 1.00108C27.5763 0.692751 27.9257 0.499999 28.3074 0.499999L30.3685 0.499999L30.8685 0.499999L30.8685 -1.09853e-06L33.9907 -9.62057e-07L33.9907 0.499999L34.4907 0.499999L36.5518 0.499999C37.4235 0.499999 37.9117 1.41736 37.4787 2.09892L36.5008 3.63842ZM54.359 3.63842L54.0909 4.06046L54.513 4.32856L53.0933 6.56346L52.6712 6.29536L52.4031 6.7174L50.4472 9.79639L50.1791 10.2184L50.6011 10.4865L49.1814 12.7214L48.7594 12.4533L48.4913 12.8754L47.5133 14.4149C47.0914 15.079 47.0914 15.9211 47.5133 16.5851L48.4913 18.1246L48.7594 18.5467L49.1814 18.2786L50.6011 20.5135L50.1791 20.7816L50.4472 21.2036L52.4031 24.2826L52.6712 24.7046L53.0933 24.4365L54.513 26.6714L54.0909 26.9395L54.359 27.3616L55.337 28.9011L55.759 28.633L55.337 28.9011C55.77 29.5826 55.2817 30.5 54.4101 30.5L52.349 30.5L51.849 30.5L51.849 31L48.7268 31L48.7268 30.5L48.2268 30.5L46.1657 30.5C45.7839 30.5 45.4346 30.3072 45.2387 29.9989L44.131 28.2552L43.8629 27.8331L43.4409 28.1012L41.7616 25.4578L42.1837 25.1897L41.9156 24.7677L39.7001 21.2802L39.432 20.8581L39.01 21.1262L37.3308 18.4828L37.7528 18.2147L37.4847 17.7927L36.377 16.0489C36.163 15.7121 36.163 15.2879 36.377 14.9511L37.4847 13.2073L37.7528 12.7853L37.3308 12.5172L39.01 9.87377L39.432 10.1419L39.7001 9.71983L41.9156 6.23233L42.1837 5.81028L41.7616 5.54218L43.4409 2.89877L43.8629 3.16687L44.131 2.74483L45.2387 1.00108C45.4346 0.692753 45.7839 0.5 46.1657 0.5L48.2268 0.5L48.7268 0.5L48.7268 -3.17923e-07L51.849 -1.81447e-07L51.849 0.5L52.349 0.5L54.4101 0.5C55.2817 0.500001 55.77 1.41736 55.337 2.09892L55.759 2.36703L55.337 2.09892L54.359 3.63842Z" stroke="#2F2F2F" stroke-miterlimit="16" stroke-linecap="square" stroke-dasharray="4 4"/>
</svg>
